<?xml version="1.0" standalone="no"?><!DOCTYPE svg PUBLIC "-//W3C//DTD SVG 1.1//EN" "http://www.w3.org/Graphics/SVG/1.1/DTD/svg11.dtd"><svg t="1726105788156" class="icon" viewBox="0 0 1024 1024" version="1.1" xmlns="http://www.w3.org/2000/svg" p-id="12805" xmlns:xlink="http://www.w3.org/1999/xlink" width="48" height="48"><path d="M0 0m136.533333 0l750.933334 0q136.533333 0 136.533333 136.533333l0 750.933334q0 136.533333-136.533333 136.533333l-750.933334 0q-136.533333 0-136.533333-136.533333l0-750.933334q0-136.533333 136.533333-136.533333Z" fill="#30384F" p-id="12806"></path><path d="M533.367467 823.650987L287.962453 681.970347V398.677333l245.405014-141.748906L778.758827 398.677333v283.293014z" fill="#59554A" p-id="12807"></path><path d="M768.94208 700.66176l-38.352213 22.1184a9.734827 9.734827 0 0 1-4.942507 1.365333 9.91232 9.91232 0 0 1-4.942507-18.445653l38.324907-22.145707a34.73408 34.73408 0 0 0 17.298773-29.969066v-281.258667a34.69312 34.69312 0 0 0-17.28512-29.928107l-243.698346-140.629333a34.638507 34.638507 0 0 0-34.57024 0L395.946667 250.729813a46.789973 46.789973 0 0 1 2.402986 14.103894 47.786667 47.786667 0 1 1-12.151466-31.3344l84.650666-48.837974a54.613333 54.613333 0 0 1 54.381227 0l243.698347 140.629334a54.613333 54.613333 0 0 1 27.19744 47.076693v281.258667a54.504107 54.504107 0 0 1-27.183787 47.035733zM375.166293 251.849387a9.557333 9.557333 0 0 1-0.477866-0.873814 26.528427 26.528427 0 1 0 3.8912 13.871787 27.142827 27.142827 0 0 0-3.413334-12.997973z m350.467414 472.255146z m-105.417387-249.856c0-0.2048-0.12288-0.314027-0.12288-0.49152a9.079467 9.079467 0 0 1 2.49856-8.178346 8.506027 8.506027 0 0 1 3.76832-2.198187 8.833707 8.833707 0 0 1 9.161387 2.198187l48.16896 48.141653-3.467947 3.467947-57.01632 56.97536 1.59744-1.59744-13.653333-5.85728 55.391573-55.391574s-23.01952-23.497387-31.402667-31.402666c-3.085653-2.90816 5.802667 55.978667-47.14496 62.805333-28.79488 3.713707-54.463147-23.10144-55.00928-55.00928-0.65536-38.597973 51.6096-50.7904 47.14496-55.00928-23.688533-22.377813-55.00928-55.00928-55.00928-55.00928L383.658667 519.099733l83.1488 78.52032-26.487467 26.46016a29.24544 29.24544 0 1 0 5.36576 5.69344h0.109227l26.70592-26.70592 52.578986 49.5616 86.016-86.016-7.468373 7.468374h19.510613l-99.669333 99.587413-51.336533-51.4048a9.120427 9.120427 0 0 0-15.428267 8.260267c0 0.177493 0.095573 0.28672 0.095573 0.49152a4.655787 4.655787 0 0 0 0.77824 1.952426 39.594667 39.594667 0 1 1-23.565653-23.770453 6.116693 6.116693 0 0 0 1.365333 0.505173 9.106773 9.106773 0 0 0 9.05216-15.209813l-77.4144-77.37344 65.672534-65.645227a9.106773 9.106773 0 0 0-8.27392-15.414613c-0.2048 0-0.28672 0.109227-0.49152 0.109227A4.724053 4.724053 0 0 0 421.888 436.906667a39.594667 39.594667 0 1 1 23.784107-23.552 9.106773 9.106773 0 0 0 14.7456 10.349226l66.68288-66.64192 80.677546 80.636587a8.820053 8.820053 0 0 1 2.225494 9.147733 8.72448 8.72448 0 0 1-2.225494 3.781974 9.106773 9.106773 0 0 1-9.024853 2.280106 4.096 4.096 0 0 1-1.365333-0.505173 39.471787 39.471787 0 0 0-41.7792 9.147733 39.594667 39.594667 0 1 0 65.37216 14.62272 5.174613 5.174613 0 0 1-0.77824-1.897813zM275.401387 320.279893l-38.352214 22.145707a34.679467 34.679467 0 0 0-17.230506 29.928107v281.258666a34.679467 34.679467 0 0 0 17.28512 29.914454l243.698346 140.629333a34.69312 34.69312 0 0 0 34.57024 0l84.759894-48.933547a46.844587 46.844587 0 0 1-2.389334-14.09024 47.786667 47.786667 0 1 1 12.151467 31.3344l-84.650667 48.837974a54.613333 54.613333 0 0 1-54.381226 0l-243.712-140.629334a54.490453 54.490453 0 0 1-27.19744-47.049386v-281.258667a54.613333 54.613333 0 0 1 27.19744-47.076693l38.33856-22.186667a9.898667 9.898667 0 1 1 9.91232 17.175893z m369.62304 468.309334a27.552427 27.552427 0 1 0-26.528427-27.470507 27.552427 27.552427 0 0 0 26.528427 27.52512zM791.893333 955.733333v-27.306666h109.226667v-13.653334h-13.653333v-13.653333h-13.653334v-13.653333h-13.653333v-13.653334h-13.653333v-13.653333h-13.653334v-13.653333h-13.653333v-13.653334h-13.653333v-13.653333h-13.653334v-13.653333h13.653334v-13.653334h13.653333v13.653334h13.653333v13.653333h13.653334v13.653333h13.653333v13.653334h13.653333v13.653333h13.653334v13.653333h13.653333v13.653334h13.653333v13.653333h13.653334v-109.226667h27.306666v163.84H791.893333z m70.314667-68.266666zM860.16 887.466667z" fill="#FFC738" p-id="12808"></path></svg>