<?xml version="1.0" standalone="no"?><!DOCTYPE svg PUBLIC "-//W3C//DTD SVG 1.1//EN" "http://www.w3.org/Graphics/SVG/1.1/DTD/svg11.dtd"><svg t="1726108012531" class="icon" viewBox="0 0 1024 1024" version="1.1" xmlns="http://www.w3.org/2000/svg" p-id="7195" xmlns:xlink="http://www.w3.org/1999/xlink" width="48" height="48"><path d="M1540.40285038 249.60707271H421.0993838l-24.95812398 47.47201127h1090.2417158c105.01248391 0 190.17955925 70.882866 190.17955922 158.29236043v37.08961096c0 87.38707017-85.18949953 158.29236047-190.17955922 158.29236042h-1276.16067883l-24.95812396 47.44958705h1355.13867755A200.78620131 200.78620131 0 0 0 1741.18905175 497.43922565v-47.04595155a200.78620131 200.78620131 0 0 0-200.78620137-200.78620139zM-159.86654249 650.75341579l-24.958124 47.44958705h322.57197974l24.9356998-47.44958705zM348.62440024 297.07908398l24.95812396-47.47201127H51.01054451l-24.95812394 47.47201127zM-513.383905 698.20300284h281.04237891l24.9356998-47.44958705H-459.31918179c-15.33814627 0-30.1605362-1.68181431-44.44474554-4.52968646l-26.86418012 51.10473005c5.69574441 0.47090798 11.43633715 0.87454335 17.24420245 0.87454346zM-649.52116529 492.46105537v-37.08961096c0-87.4094944 85.1446511-158.29236047 190.2019835-158.29236043h91.58039376l24.95812394-47.47201127h-170.60324091a200.78620131 200.78620131 0 0 0-200.78620142 200.78620139v47.04595155c0 89.83130694 59.04289347 165.84931261 140.42028069 191.50258654l29.01690246-55.18593274c-62.09258337-26.05690929-104.78824199-79.47133102-104.78824202-141.29482408zM-21.46443896 297.07908398l24.95812393-47.47201127H-295.26380452l-24.95812394 47.47201127z" fill="#70CD3C" p-id="7196"></path><path d="M777.30764923 297.07908398H396.14125982L210.22229679 650.73099162h381.16638931zM-462.27917495 297.07908398c-105.0573323 0-190.20198343 70.882866-190.20198341 158.26993621v37.08961107c0 62.63076397 43.81686818 116.60579042 107.23247868 142.2814884l177.50989165-337.64103568h-94.54038692zM-320.22192846 297.07908398l-183.83351335 349.70525016c13.45451425 2.48908522 27.40236072 3.94665755 41.77626686 3.94665748h254.8957729l185.94138722-353.65190764H-320.22192846zM26.05242057 297.07908398L-159.86654249 650.73099162h322.57197971l185.91896302-353.65190764z" fill="#62B733" p-id="7197"></path></svg>